<svg xmlns="http://www.w3.org/2000/svg" width="20.016" height="15.984" viewBox="0 0 20.016 15.984">
  <path id="Path_2147" data-name="Path 2147" d="M19.008-16.392H4.992a2.874,2.874,0,0,0-1.5.408A3.1,3.1,0,0,0,2.4-14.892a2.874,2.874,0,0,0-.408,1.5v9.984a2.874,2.874,0,0,0,.408,1.5A3.1,3.1,0,0,0,3.492-.816a2.874,2.874,0,0,0,1.5.408H19.008a2.874,2.874,0,0,0,1.5-.408A3.1,3.1,0,0,0,21.6-1.908a2.874,2.874,0,0,0,.408-1.5v-9.984a2.874,2.874,0,0,0-.408-1.5,3.1,3.1,0,0,0-1.092-1.092A2.874,2.874,0,0,0,19.008-16.392ZM4.992-14.4H19.008a.93.93,0,0,1,.7.3.988.988,0,0,1,.288.708L12-8.52,4.008-13.392A.988.988,0,0,1,4.3-14.1.93.93,0,0,1,4.992-14.4Zm15,10.992A.988.988,0,0,1,19.7-2.7a.93.93,0,0,1-.7.3H4.992a.93.93,0,0,1-.7-.3.988.988,0,0,1-.288-.708v-7.7l7.464,4.56a.965.965,0,0,0,.5.144.965.965,0,0,0,.5-.144l7.512-4.56Z" transform="translate(-1.992 16.392)" fill="#0d0d0d"/>
</svg>
