<svg xmlns="http://www.w3.org/2000/svg" width="18.414" height="16.99" viewBox="0 0 18.414 16.99">
  <path id="Path_2142" data-name="Path 2142" d="M18.48-14.476a5.625,5.625,0,0,0-2.31-1.408,5.743,5.743,0,0,0-2.684-.2A5.6,5.6,0,0,0,11-15.026a5.524,5.524,0,0,0-2.651-1.133,5.742,5.742,0,0,0-2.838.3,5.645,5.645,0,0,0-2.354,1.639,5.614,5.614,0,0,0-1.276,2.585,5.726,5.726,0,0,0,.132,2.86A5.593,5.593,0,0,0,3.52-6.336L10.34.484A.861.861,0,0,0,11,.77a.861.861,0,0,0,.66-.286l6.82-6.82a5.746,5.746,0,0,0,1.254-1.87,5.665,5.665,0,0,0,.44-2.2,5.665,5.665,0,0,0-.44-2.2A5.746,5.746,0,0,0,18.48-14.476Zm-1.3,6.842L11-1.452,4.818-7.634a3.82,3.82,0,0,1-1.067-2,3.868,3.868,0,0,1,.22-2.266,3.827,3.827,0,0,1,1.43-1.76,3.793,3.793,0,0,1,2.167-.66,3.835,3.835,0,0,1,1.485.3,3.875,3.875,0,0,1,1.265.847.882.882,0,0,0,.649.264.882.882,0,0,0,.649-.264,3.805,3.805,0,0,1,1.738-.858,3.849,3.849,0,0,1,1.914.088,3.925,3.925,0,0,1,1.661,1,3.829,3.829,0,0,1,.99,1.661,3.846,3.846,0,0,1,.066,1.914,3.9,3.9,0,0,1-.869,1.738Z" transform="translate(-1.76 16.22)" fill="#0d0d0d"/>
</svg>
