<svg xmlns="http://www.w3.org/2000/svg" width="18.338" height="12.826" viewBox="0 0 18.338 12.826">
  <path id="Path_2144" data-name="Path 2144" d="M20.02-2.684,15.444-10.01a1.015,1.015,0,0,0-.341-.319.865.865,0,0,0-.44-.121.865.865,0,0,0-.44.121,1.015,1.015,0,0,0-.341.319l-.9,1.474L9.944-13.662a1.015,1.015,0,0,0-.341-.319.865.865,0,0,0-.44-.121.865.865,0,0,0-.44.121,1.015,1.015,0,0,0-.341.319l-6.424,11a.885.885,0,0,0-.132.462.945.945,0,0,0,.121.462.848.848,0,0,0,.341.341.945.945,0,0,0,.462.121h16.5a.885.885,0,0,0,.462-.132.924.924,0,0,0,.341-.352.861.861,0,0,0,.11-.462A.973.973,0,0,0,20.02-2.684ZM9.57-3.124H4.356l4.818-8.25,2.684,4.6Zm2.156,0L13.75-6.27l.924-1.54L17.6-3.124Z" transform="translate(-1.826 14.102)" fill="#fff"/>
</svg>
