<svg xmlns="http://www.w3.org/2000/svg" width="18.251" height="18.333" viewBox="0 0 18.251 18.333">
  <path id="Path_2143" data-name="Path 2143" d="M14.41-7.04a5.255,5.255,0,0,0,1.87-2.772,5.463,5.463,0,0,0-.088-3.355,5.318,5.318,0,0,0-2-2.673A5.394,5.394,0,0,0,11-16.852,5.394,5.394,0,0,0,7.81-15.84a5.318,5.318,0,0,0-2,2.673A5.463,5.463,0,0,0,5.72-9.812,5.255,5.255,0,0,0,7.59-7.04,9,9,0,0,0,3.707-4.081,9.037,9.037,0,0,0,1.892.44a.9.9,0,0,0,.2.682.91.91,0,0,0,1.3.154A.891.891,0,0,0,3.74.66,7.163,7.163,0,0,1,4.961-2.662,7.34,7.34,0,0,1,7.579-5.016a7.337,7.337,0,0,1,6.886,0,7.34,7.34,0,0,1,2.618,2.354A7.163,7.163,0,0,1,18.3.66a.9.9,0,0,0,.308.583.906.906,0,0,0,.616.231h.088a.9.9,0,0,0,.616-.341.863.863,0,0,0,.2-.671A9.007,9.007,0,0,0,18.3-4.081,9.079,9.079,0,0,0,14.41-7.04ZM11-7.7A3.577,3.577,0,0,1,9.163-8.2,3.68,3.68,0,0,1,7.821-9.537a3.577,3.577,0,0,1-.495-1.837,3.577,3.577,0,0,1,.495-1.837,3.68,3.68,0,0,1,1.342-1.342A3.577,3.577,0,0,1,11-15.048a3.577,3.577,0,0,1,1.837.495,3.68,3.68,0,0,1,1.342,1.342,3.577,3.577,0,0,1,.5,1.837,3.577,3.577,0,0,1-.5,1.837A3.68,3.68,0,0,1,12.837-8.2,3.577,3.577,0,0,1,11-7.7Z" transform="translate(-1.885 16.852)" fill="#0d0d0d"/>
</svg>
