<svg xmlns="http://www.w3.org/2000/svg" width="18.368" height="18.346" viewBox="0 0 18.368 18.346">
  <path id="Path_2141" data-name="Path 2141" d="M19.91-.11,16.5-3.476a8.081,8.081,0,0,0,1.694-3.806,8.005,8.005,0,0,0-.33-4.026,8.029,8.029,0,0,0-2.288-3.465A8.232,8.232,0,0,0,11.858-16.7a8.314,8.314,0,0,0-4.026.11,8.218,8.218,0,0,0-3.6,2.123,8.218,8.218,0,0,0-2.123,3.6A8.314,8.314,0,0,0,2-6.842,8.232,8.232,0,0,0,3.927-3.124,8.029,8.029,0,0,0,7.392-.836a8.005,8.005,0,0,0,4.026.33A8.081,8.081,0,0,0,15.224-2.2L18.59,1.166a.861.861,0,0,0,.66.286.877.877,0,0,0,.66-.275.906.906,0,0,0,.264-.649A.869.869,0,0,0,19.91-.11ZM10.076-2.2a6.268,6.268,0,0,1-3.234-.88,6.457,6.457,0,0,1-2.31-2.31,6.268,6.268,0,0,1-.88-3.234,6.268,6.268,0,0,1,.88-3.234,6.457,6.457,0,0,1,2.31-2.31,6.268,6.268,0,0,1,3.234-.88,6.268,6.268,0,0,1,3.234.88,6.457,6.457,0,0,1,2.31,2.31,6.268,6.268,0,0,1,.88,3.234,6.268,6.268,0,0,1-.88,3.234,6.457,6.457,0,0,1-2.31,2.31A6.268,6.268,0,0,1,10.076-2.2Z" transform="translate(-1.806 16.894)" fill="#0d0d0d"/>
</svg>
