<svg xmlns="http://www.w3.org/2000/svg" width="17.5" height="16.67" viewBox="0 0 17.5 16.67">
  <path id="Path_2145" data-name="Path 2145" d="M17.08-5.34a.775.775,0,0,0-.58.25.824.824,0,0,0-.24.59v3.34a.775.775,0,0,1-.25.58.824.824,0,0,1-.59.24H3.76a.824.824,0,0,1-.59-.24.775.775,0,0,1-.25-.58v-8l4.9,4.9a2.5,2.5,0,0,0,.82.55,2.466,2.466,0,0,0,.95.19,2.466,2.466,0,0,0,.95-.19,2.5,2.5,0,0,0,.82-.55l1.36-1.36A.859.859,0,0,0,13-6a.771.771,0,0,0,.02-.46.865.865,0,0,0-.23-.41.865.865,0,0,0-.41-.23.771.771,0,0,0-.46.02.859.859,0,0,0-.38.28L10.16-5.44a.79.79,0,0,1-.58.24A.79.79,0,0,1,9-5.44l-4.9-4.9H9.58a.8.8,0,0,0,.51-.28.811.811,0,0,0,.21-.55.811.811,0,0,0-.21-.55A.8.8,0,0,0,9.58-12H3.76a2.4,2.4,0,0,0-1.25.34,2.587,2.587,0,0,0-.91.91A2.4,2.4,0,0,0,1.26-9.5v8.34A2.4,2.4,0,0,0,1.6.09,2.587,2.587,0,0,0,2.51,1a2.4,2.4,0,0,0,1.25.34H15.42A2.4,2.4,0,0,0,16.67,1a2.587,2.587,0,0,0,.91-.91,2.4,2.4,0,0,0,.34-1.25V-4.5a.807.807,0,0,0-.25-.59A.807.807,0,0,0,17.08-5.34ZM18.5-12.6,16-15.1a1.052,1.052,0,0,0-.26-.16.766.766,0,0,0-.64,0,.959.959,0,0,0-.28.16l-2.5,2.5a.838.838,0,0,0-.25.59.784.784,0,0,0,.24.6.818.818,0,0,0,.6.25.8.8,0,0,0,.59-.24l1.08-1.1v4.66a.807.807,0,0,0,.25.59.807.807,0,0,0,.59.25.807.807,0,0,0,.59-.25.807.807,0,0,0,.25-.59V-12.5l1.06,1.1a.8.8,0,0,0,.59.24.836.836,0,0,0,.6-.24.8.8,0,0,0,.25-.6A.783.783,0,0,0,18.5-12.6Z" transform="translate(-1.26 15.33)" fill="#0d0d0d"/>
</svg>
