<svg xmlns="http://www.w3.org/2000/svg" width="18.311" height="18.271" viewBox="0 0 18.311 18.271">
  <path id="Path_2140" data-name="Path 2140" d="M17.8-6.776a2.123,2.123,0,0,1-.484-.088l-.132-.022a11.539,11.539,0,0,1-1.21-.374,1.757,1.757,0,0,0-1.309.022,1.772,1.772,0,0,0-.957.9l-.2.418a10.986,10.986,0,0,1-2.431-1.837,11.554,11.554,0,0,1-1.859-2.431l.418-.2a1.772,1.772,0,0,0,.9-.957,1.757,1.757,0,0,0,.022-1.309,8.771,8.771,0,0,1-.352-1.21l-.022-.11q-.066-.352-.088-.506a2.693,2.693,0,0,0-.957-1.661,2.631,2.631,0,0,0-1.793-.627H4.576a2.661,2.661,0,0,0-1.122.242,2.738,2.738,0,0,0-.924.693,2.767,2.767,0,0,0-.572,1.023A2.614,2.614,0,0,0,1.87-13.64,17.282,17.282,0,0,0,3.52-8.2a17.351,17.351,0,0,0,3.311,4.62,17.351,17.351,0,0,0,4.62,3.311A17.282,17.282,0,0,0,16.9,1.386a1.594,1.594,0,0,0,.374,0A2.716,2.716,0,0,0,19.1.7a2.772,2.772,0,0,0,.682-.935,2.736,2.736,0,0,0,.242-1.133v-2.75a2.725,2.725,0,0,0-.638-1.716A2.689,2.689,0,0,0,17.8-6.776Zm.44,5.5a.957.957,0,0,1-.319.671.9.9,0,0,1-.737.231,15.436,15.436,0,0,1-4.9-1.474A15.543,15.543,0,0,1,8.14-4.818,15.683,15.683,0,0,1,5.159-8.976a15.388,15.388,0,0,1-1.485-4.906.871.871,0,0,1,.209-.737.876.876,0,0,1,.693-.319h2.75a.92.92,0,0,1,.583.2.964.964,0,0,1,.341.506,2.137,2.137,0,0,0,.088.506l.044.242a9.945,9.945,0,0,0,.418,1.43l-1.276.594a.906.906,0,0,0-.495.506.872.872,0,0,0,.011.7A13.254,13.254,0,0,0,9.691-6.479a13.254,13.254,0,0,0,3.773,2.651.872.872,0,0,0,.7.011.906.906,0,0,0,.506-.5l.572-1.276A9.7,9.7,0,0,0,16.7-5.17l.22.044q.352.066.528.088a.964.964,0,0,1,.506.341.92.92,0,0,1,.2.583Zm-5.412-15.6h-.638a.862.862,0,0,0-.627.319.9.9,0,0,0-.22.682.874.874,0,0,0,.33.627.941.941,0,0,0,.671.22h.484a5.388,5.388,0,0,1,2.761.737,5.461,5.461,0,0,1,2,2,5.388,5.388,0,0,1,.737,2.761v.484a.9.9,0,0,0,.22.66.92.92,0,0,0,.616.33h.088a.845.845,0,0,0,.6-.242.963.963,0,0,0,.3-.594v-.638a7.381,7.381,0,0,0-.55-2.8,7.151,7.151,0,0,0-1.584-2.387,7.294,7.294,0,0,0-2.387-1.595A7.255,7.255,0,0,0,12.826-16.874Zm1.848,7.348a.881.881,0,0,0,.308.561.892.892,0,0,0,.6.231.892.892,0,0,0,.605-.231.881.881,0,0,0,.308-.561,3.577,3.577,0,0,0-.5-1.837,3.68,3.68,0,0,0-1.342-1.342,3.577,3.577,0,0,0-1.837-.495.881.881,0,0,0-.561.308.892.892,0,0,0-.231.6.892.892,0,0,0,.231.605.881.881,0,0,0,.561.308,1.782,1.782,0,0,1,1.309.539A1.782,1.782,0,0,1,14.674-9.526Z" transform="translate(-1.841 16.874)" fill="#0d0d0d"/>
</svg>
